<?xml version="1.0" encoding="UTF-8"?>
<!-- Created with Inkscape (http://www.inkscape.org/) -->
<svg width="1024" height="1024" version="1.1" viewBox="0 0 270.93 270.93" xmlns="http://www.w3.org/2000/svg">
 <g fill="#24221c" stroke-width="0">
  <ellipse cx="135.47" cy="82.115" rx="84.667" ry="17.859" style="paint-order:markers fill stroke"/>
  <ellipse cx="135.47" cy="153.55" rx="84.667" ry="17.859" style="paint-order:markers fill stroke"/>
  <ellipse cx="135.47" cy="224.99" rx="84.667" ry="17.859" style="paint-order:markers fill stroke"/>
 </g>
 <path d="m29.592 66.822s-8.8507-14.705 7.0068-17.044c14.923-2.2016 15.857 13.034 15.857 13.034v182.14s-0.73756 16.71-19.545 17.712c-19.914 0.33421-22.131-15.704-22.131-15.704s-3.4045-15.986 16.23-16.045c15.847-0.0475 11.086 13.02 11.086 13.02" fill="none" stroke="#000" stroke-linecap="round" stroke-width="12.093" style="paint-order:markers fill stroke"/>
 <path d="m241.34 66.822s8.8507-14.705-7.0068-17.044c-14.923-2.2016-15.857 13.034-15.857 13.034v182.14s0.73755 16.71 19.545 17.712c19.914 0.33421 22.131-15.704 22.131-15.704s3.4045-15.986-16.23-16.045c-15.847-0.0475-11.086 13.02-11.086 13.02" fill="none" stroke="#000" stroke-linecap="round" stroke-width="12.093" style="paint-order:markers fill stroke"/>
 <path d="m116.68 3.2384c-3.6571 3.9235-3.7292 9.5075-0.9712 13.166l3.3813 4.4856s11.358 13.841 13.571 13.701c0.0858-0.0054-0.0873-0.01656-1e-3 -0.01286 2.956 0.12726 17.13-17.984 17.13-17.984 3.1208-3.348 2.6859-9.2427-0.97121-13.166-3.6571-3.9234-9.5444-1.5812-11.057-0.20344l-5.0826 4.6304-4.8137-4.5108c-1.187-1.1121-7.528-4.0291-11.185-0.10563z" stroke-width="0" style="paint-order:markers fill stroke"/>
 <path d="m107.05 26.363c-0.96351-2.8795 0.36131-4.7574 3.011-6.1345 2.0805-1.0813 7.7081 0.50078 7.4672 5.7589 1.4943 6.4349-7.8928 8.1424-7.8285 8.1376 0 0-51.668 16.901-60.099 11.768-8.4307-5.133-0.72263-14.648-0.72263-14.648s3.1201-3.0359 5.6606-3.0047c3.8501 0.04729 7.4672 3.7558 5.4198 7.8872" fill="none" stroke="#000" stroke-linecap="round" stroke-width="7.034" style="paint-order:markers fill stroke"/>
 <path d="m159.05 26.431c1.0585-2.8512-0.39693-4.7107-3.3078-6.0743-2.2856-1.0707-8.468 0.49586-8.2034 5.7024-1.6416 6.3717 8.6708 8.0624 8.6003 8.0577 0 0 56.762 16.735 66.024 11.653s0.79387-14.504 0.79387-14.504-3.4277-3.0061-6.2187-2.9751c-4.2296 0.04683-8.2034 3.7189-5.9541 7.8098" fill="none" stroke="#000" stroke-linecap="round" stroke-width="7.034" style="paint-order:markers fill stroke"/>
</svg>
